<?xml version="1.0" standalone="no"?>
<!DOCTYPE svg PUBLIC "-//W3C//DTD SVG 20010904//EN"
 "http://www.w3.org/TR/2001/REC-SVG-20010904/DTD/svg10.dtd">
<svg version="1.0" xmlns="http://www.w3.org/2000/svg"
 width="845.000000pt" height="1280.000000pt" viewBox="0 0 845.000000 1280.000000"
 preserveAspectRatio="xMidYMid meet">
<metadata>
Created by potrace 1.15, written by Peter Selinger 2001-2017
</metadata>
<g transform="translate(0.000000,1280.000000) scale(0.100000,-0.100000)"
fill="#000000" stroke="none">
<path d="M4525 11591 c-15 -15 -136 -58 -197 -70 -52 -11 -59 -10 -119 17 -44
21 -95 34 -164 42 -110 14 -178 4 -310 -42 -60 -22 -157 -77 -169 -97 -9 -14
-57 -14 -183 1 -57 6 -105 9 -109 6 -3 -4 12 -46 34 -95 21 -48 45 -106 52
-128 7 -22 21 -57 31 -77 18 -36 18 -38 -1 -83 -16 -38 -20 -72 -22 -183 -2
-122 0 -144 21 -199 13 -34 38 -80 57 -101 18 -21 44 -65 58 -96 14 -31 34
-69 46 -83 20 -25 20 -26 1 -57 -37 -63 -50 -92 -56 -127 -3 -23 -13 -40 -28
-47 -117 -58 -231 -107 -275 -118 -30 -8 -64 -21 -75 -29 -12 -8 -28 -15 -37
-15 -33 0 -118 -49 -173 -100 -64 -58 -139 -166 -163 -233 -36 -99 -30 -193
18 -312 33 -83 36 -94 58 -240 23 -156 25 -234 10 -386 -17 -179 -38 -265 -89
-361 -25 -49 -50 -88 -55 -88 -5 0 -33 -14 -63 -31 l-55 -31 29 -30 c30 -32
33 -66 7 -102 -8 -11 -14 -41 -14 -66 0 -25 -5 -51 -12 -58 -6 -6 -12 -49 -14
-99 -2 -48 -5 -140 -8 -203 -3 -63 -7 -171 -10 -240 -9 -212 -14 -264 -30
-302 -9 -21 -16 -62 -16 -93 0 -39 -6 -64 -20 -83 -22 -31 -37 -146 -20 -157
22 -13 7 -79 -27 -119 -20 -24 -33 -51 -33 -67 0 -27 5 -35 41 -62 15 -11 15
-18 3 -72 -7 -33 -18 -98 -23 -145 -6 -47 -18 -112 -27 -146 -18 -69 -17 -74
66 -219 22 -38 40 -75 40 -81 0 -14 -107 -235 -155 -319 -19 -33 -34 -68 -35
-78 0 -10 -42 -106 -94 -215 -52 -108 -96 -205 -100 -215 -3 -9 -10 -17 -15
-17 -5 0 6 59 25 132 19 72 34 137 34 144 0 17 -44 26 -73 15 -103 -39 -255
-312 -491 -875 -25 -60 -44 -111 -42 -113 2 -2 19 5 37 16 68 42 76 18 29 -81
-22 -45 -29 -72 -25 -94 4 -23 -1 -39 -20 -65 -13 -19 -30 -45 -36 -59 -7 -14
-19 -41 -28 -60 -9 -19 -28 -53 -42 -75 -30 -46 -41 -77 -44 -120 -1 -16 -12
-66 -24 -110 -11 -44 -21 -101 -21 -127 0 -43 3 -49 32 -64 18 -10 53 -18 78
-18 l46 -1 -14 -55 c-16 -63 -67 -236 -77 -262 -14 -35 32 -17 100 38 132 108
313 372 473 689 118 237 313 717 297 733 -3 3 -18 -6 -33 -20 -32 -30 -81 -62
-86 -57 -2 2 -10 20 -19 39 -13 34 -13 39 19 110 24 53 33 84 29 106 -4 24 19
81 115 285 111 233 150 304 150 271 0 -6 6 -9 13 -7 6 3 32 -1 57 -9 45 -13
45 -14 44 -57 -1 -39 -16 -141 -54 -369 -10 -59 -38 -198 -91 -455 -36 -173
-68 -361 -83 -490 -29 -241 -45 -360 -52 -378 -4 -12 0 -23 12 -32 20 -14 38
-10 29 6 -4 5 1 16 10 25 12 12 19 13 29 5 10 -8 16 -8 25 3 8 9 22 11 44 7
25 -5 33 -12 35 -33 2 -15 -2 -37 -8 -48 -15 -27 -8 -35 17 -19 12 7 20 23 20
40 0 16 3 32 6 35 13 13 37 -19 38 -50 1 -21 3 -25 6 -11 14 56 46 53 37 -3
-6 -36 -5 -37 25 -38 24 -1 31 3 31 17 0 23 13 24 34 4 10 -10 13 -26 9 -49
-7 -46 14 -57 23 -11 5 31 9 35 28 29 11 -3 27 -13 34 -22 11 -14 14 -15 21
-3 6 8 16 11 26 7 17 -6 16 -8 -4 -30 -19 -20 -21 -28 -11 -46 8 -15 15 -18
24 -11 20 17 59 -10 67 -47 9 -43 19 -54 82 -85 36 -19 72 -50 115 -100 34
-40 80 -86 102 -102 23 -17 51 -38 64 -47 12 -9 28 -36 36 -60 19 -60 70 -135
130 -192 27 -26 50 -52 50 -57 0 -5 7 -9 16 -9 9 0 14 -6 11 -12 -8 -24 23
-68 63 -88 40 -20 40 -20 40 -81 0 -78 -15 -176 -50 -324 -16 -66 -34 -165
-40 -220 -6 -55 -17 -127 -24 -160 -8 -33 -17 -75 -20 -94 -6 -32 -123 -221
-137 -221 -8 0 -6 16 6 43 8 19 -10 47 -31 47 -8 0 -14 -8 -14 -18 0 -21 -30
-52 -49 -52 -8 0 -11 8 -8 20 5 19 3 18 -24 -4 -18 -15 -36 -23 -46 -19 -10 4
-22 -2 -33 -17 -16 -22 -20 -22 -50 -10 -29 12 -33 11 -42 -3 -14 -25 -26 -20
-20 8 2 14 0 25 -7 25 -6 0 -8 7 -4 17 5 13 2 15 -11 10 -10 -4 -19 -7 -22 -7
-2 0 -1 -7 3 -16 4 -10 1 -15 -8 -14 -36 5 -49 -2 -60 -35 -8 -22 -20 -35 -31
-35 -15 0 -18 8 -18 45 0 45 -4 52 -61 119 -23 26 -29 28 -42 17 -11 -9 -21
-10 -35 -2 -11 6 -22 8 -25 4 -4 -3 -9 2 -13 11 -8 21 -26 20 -57 -4 -14 -11
-31 -20 -39 -20 -7 0 -37 23 -67 50 -29 28 -55 50 -58 50 -2 0 -2 -13 2 -30 7
-33 0 -37 -29 -15 -27 21 -56 19 -56 -2 1 -22 23 -53 39 -53 13 0 15 -26 2
-35 -5 -3 -12 4 -16 15 -7 23 -13 24 -49 10 -14 -5 -26 -17 -26 -27 -1 -14 -5
-12 -21 10 -17 22 -24 25 -35 16 -8 -6 -27 -9 -44 -7 -24 4 -30 1 -30 -14 0
-32 -33 -103 -62 -130 -15 -14 -28 -34 -28 -43 0 -22 -57 -75 -81 -75 -16 0
-18 -5 -14 -28 13 -59 29 -108 43 -124 12 -15 10 -23 -19 -67 -18 -28 -36 -51
-40 -51 -4 0 -28 -14 -52 -30 -25 -17 -52 -30 -60 -30 -21 0 -30 -17 -29 -51
1 -29 -20 -40 -33 -19 -11 18 -25 11 -36 -17 -13 -34 -29 -45 -45 -32 -9 7
-19 4 -33 -10 -11 -11 -27 -17 -39 -14 -12 3 -30 -5 -48 -22 -16 -14 -41 -29
-57 -32 -17 -4 -33 -16 -43 -34 -8 -16 -19 -29 -24 -29 -6 0 -10 -8 -10 -19 0
-10 -7 -24 -15 -31 -8 -7 -15 -23 -15 -36 0 -25 -15 -33 -23 -11 -2 6 -8 9
-12 5 -12 -11 -24 -82 -15 -88 5 -3 3 -24 -3 -48 -11 -43 -27 -57 -27 -23 0
30 -11 51 -25 51 -15 0 -75 -35 -110 -65 -30 -25 -45 -71 -21 -62 20 8 21 -6
1 -23 -8 -7 -15 -19 -15 -27 0 -8 -7 -28 -16 -46 -12 -21 -13 -32 -5 -35 13
-4 14 -26 2 -50 -5 -9 -16 -32 -23 -49 -7 -18 -16 -33 -20 -33 -5 0 -8 -6 -8
-14 0 -23 -49 -76 -65 -69 -8 3 -15 17 -15 33 0 27 -31 66 -43 53 -12 -11 -8
-43 5 -41 7 2 14 -7 16 -19 2 -15 -2 -23 -12 -24 -18 -2 -32 -5 -43 -10 -5 -2
105 -6 242 -9 335 -8 5158 -11 5196 -3 20 4 26 9 21 17 -17 21 -20 55 -6 67
16 13 19 69 4 69 -5 0 -10 4 -10 9 0 6 16 7 35 4 32 -5 35 -4 35 19 0 36 23
78 43 78 9 0 17 -4 17 -10 0 -5 -4 -10 -10 -10 -5 0 -10 -5 -10 -10 0 -11 53
-2 58 10 2 5 12 5 24 2 13 -3 19 -1 15 5 -9 14 20 71 43 83 26 14 44 73 31 99
-6 11 -11 28 -11 39 0 11 -7 25 -15 32 -13 11 -13 16 2 40 9 15 30 34 47 41
24 11 30 19 28 38 -1 14 2 27 7 30 5 4 13 29 16 58 6 44 4 54 -14 72 -17 17
-19 26 -12 40 12 22 5 31 -26 31 -15 0 -27 8 -32 23 -5 12 -21 33 -35 46 -14
14 -26 34 -26 45 0 11 -12 31 -26 43 -22 19 -34 22 -67 16 -46 -7 -67 11 -67
58 0 15 -4 30 -9 34 -11 6 -33 -28 -29 -46 2 -6 -3 -14 -9 -16 -8 -3 -14 6
-15 24 0 15 -2 33 -3 38 -2 6 -3 16 -4 23 0 7 -7 12 -13 11 -7 -1 -24 3 -38 9
-14 6 -19 11 -12 11 17 1 15 26 -3 41 -12 10 -15 9 -15 -4 0 -13 -7 -15 -42
-10 -24 4 -45 10 -48 13 -7 9 -42 30 -67 41 -12 5 -33 25 -45 45 -14 21 -29
33 -37 30 -8 -3 -32 6 -54 21 -32 21 -41 23 -48 12 -5 -7 -9 -16 -9 -20 0 -5
-4 -8 -10 -8 -16 0 -12 36 5 50 27 23 1 34 -36 16 -40 -20 -48 -20 -70 0 -13
11 -22 13 -36 6 -13 -7 -24 -6 -38 4 -25 19 -52 18 -63 -2 -8 -15 -11 -15 -36
1 -22 14 -32 16 -51 7 -21 -10 -25 -9 -25 4 0 22 -24 12 -29 -12 -6 -35 -55
-48 -64 -16 -3 9 -17 49 -32 87 -87 227 -152 454 -134 465 12 8 12 49 3 195
-3 50 -6 137 -7 195 -2 82 -7 116 -24 155 -28 66 -73 206 -73 227 0 9 -11 29
-24 45 -20 24 -24 43 -30 141 -6 95 -5 113 8 118 21 8 31 105 17 169 -9 37 -9
65 -1 99 7 33 7 59 -1 91 -9 35 -9 48 1 60 7 9 9 26 5 45 -4 19 -3 30 4 30 6
0 11 -13 11 -30 0 -32 11 -38 29 -17 8 10 7 17 -1 25 -9 9 -9 12 1 12 8 0 10
7 6 19 -4 13 0 23 11 29 17 9 22 62 10 100 -8 25 27 40 49 22 15 -12 55 2 55
20 0 6 10 10 21 10 17 0 20 -5 16 -21 -5 -17 -3 -18 10 -7 9 7 28 13 42 13 20
0 26 5 24 20 -1 11 2 22 7 25 16 10 13 63 -8 145 -70 274 -127 500 -142 565
-9 41 -29 120 -43 175 -15 55 -47 183 -72 285 -47 193 -71 279 -135 470 -21
63 -48 149 -60 190 -12 41 -28 95 -35 120 -14 48 -55 233 -80 365 -13 66 -36
226 -62 426 -4 33 0 42 44 88 26 29 57 67 68 85 27 45 85 126 107 151 23 26
124 169 144 203 8 15 28 47 44 72 89 138 140 256 140 323 0 37 32 87 56 87 9
0 14 7 12 18 -2 11 -18 20 -45 26 l-41 9 -11 74 c-14 95 -14 380 0 554 8 97 8
178 0 294 -11 151 -10 164 9 230 54 184 69 248 76 321 4 44 12 86 18 94 7 8
27 62 45 120 18 58 39 120 47 138 13 31 13 36 -11 77 -32 54 -169 185 -194
185 -10 0 -39 16 -64 35 -25 19 -50 35 -55 35 -16 0 -122 106 -122 122 0 9 13
30 29 47 27 29 34 31 94 31 55 0 70 4 94 24 26 22 28 30 26 88 -1 35 5 89 13
121 14 54 13 65 -6 152 -23 110 -25 201 -6 302 7 39 10 76 7 82 -5 7 -28 1
-70 -19 -122 -59 -138 -63 -277 -64 -130 -2 -131 -2 -180 -34 -27 -18 -58 -34
-69 -36 -90 -17 -98 -21 -118 -59 -18 -35 -23 -38 -51 -33 -17 4 -40 8 -51 9
-22 4 -62 69 -95 155 -20 53 -53 236 -65 368 -6 66 -4 78 40 205 39 113 47
152 54 249 7 90 6 122 -4 148 -14 33 -24 39 -40 23z m-1485 -4373 c-22 -191
-39 -238 -110 -313 -31 -33 -65 -73 -75 -90 -10 -17 -20 -24 -23 -17 -6 18 28
114 49 137 26 29 52 104 50 147 -4 81 90 301 119 283 4 -2 -1 -68 -10 -147z
m1100 -3912 c0 -2 3 -12 7 -22 4 -12 3 -15 -5 -10 -8 5 -12 0 -12 -12 0 -27
41 -37 58 -15 6 9 12 25 12 36 0 11 5 17 13 14 7 -2 12 -20 11 -41 -1 -30 2
-36 14 -31 8 3 19 0 23 -7 6 -10 11 -10 20 -1 22 22 59 -53 52 -103 -3 -27 0
-50 11 -70 23 -41 81 -104 96 -104 15 0 60 -39 60 -52 0 -4 -7 -8 -15 -8 -25
0 -17 -18 30 -77 25 -30 45 -59 45 -63 0 -5 14 -31 32 -57 40 -61 37 -57 44
-50 4 4 1 13 -6 22 -7 9 -10 18 -7 21 9 10 40 -45 41 -74 1 -15 -4 -36 -11
-47 -19 -28 -17 -39 23 -124 20 -42 47 -114 61 -161 13 -47 31 -92 39 -101 16
-17 54 -145 54 -180 0 -12 8 -23 19 -26 21 -5 23 -20 42 -291 10 -153 10 -175
-4 -189 -19 -19 -107 -31 -107 -14 0 17 -31 13 -52 -6 -16 -14 -24 -15 -51 -5
-26 10 -39 9 -77 -5 -25 -9 -48 -22 -52 -27 -5 -7 -8 -6 -8 2 0 8 -9 12 -22
10 -18 -2 -24 2 -26 23 -3 23 -10 28 -59 39 -40 10 -61 22 -76 42 -26 34 -31
35 -64 2 -29 -29 -83 -42 -116 -27 -77 36 -127 38 -127 5 0 -8 -2 -13 -5 -10
-7 6 22 231 34 271 6 18 21 70 35 117 16 54 32 89 45 97 11 7 22 29 26 52 3
21 13 47 20 58 9 11 14 44 15 86 0 39 8 92 19 125 68 206 83 400 41 541 -22
76 -67 127 -121 138 -24 5 -29 11 -30 37 -1 17 -1 36 0 42 2 21 -27 79 -52
102 l-24 23 35 55 c31 46 52 66 52 50z m-930 -219 c0 -6 -11 0 -25 13 -14 13
-25 28 -25 33 0 6 11 0 25 -13 14 -13 25 -28 25 -33z m1190 -39 c0 -14 -27 -9
-40 7 -7 8 -9 23 -5 32 6 16 8 15 25 -7 11 -14 20 -28 20 -32z m-946 -235 c54
-70 44 -88 -14 -24 -28 30 -50 58 -50 63 0 22 31 3 64 -39z m1258 -340 c17
-20 30 -73 17 -73 -8 0 -49 71 -49 85 0 11 18 4 32 -12z m633 -115 c17 -75 20
-168 6 -168 -5 0 -12 30 -16 68 -4 37 -11 95 -16 130 -5 35 -6 68 -2 75 5 8 9
3 11 -13 1 -14 9 -55 17 -92z m-1015 -858 c0 -5 -2 -10 -4 -10 -3 0 -8 5 -11
10 -3 6 -1 10 4 10 6 0 11 -4 11 -10z m1340 -106 c0 -8 -5 -12 -10 -9 -6 4 -8
11 -5 16 9 14 15 11 15 -7z m1124 -659 c-6 -16 -24 -21 -24 -7 0 11 11 22 21
22 5 0 6 -7 3 -15z m-5224 -74 c0 -12 -20 -25 -27 -18 -7 7 6 27 18 27 5 0 9
-4 9 -9z m-282 -470 c3 -8 -1 -12 -9 -9 -7 2 -15 10 -17 17 -3 8 1 12 9 9 7
-2 15 -10 17 -17z m5162 -90 c0 -6 -4 -13 -10 -16 -5 -3 -10 1 -10 9 0 9 5 16
10 16 6 0 10 -4 10 -9z m-5265 -51 c3 -5 -1 -10 -10 -10 -9 0 -13 5 -10 10 3
6 8 10 10 10 2 0 7 -4 10 -10z"/>
<path d="M2210 1590 c0 -5 5 -10 10 -10 6 0 10 5 10 10 0 6 -4 10 -10 10 -5 0
-10 -4 -10 -10z"/>
<path d="M1500 748 c-6 -13 -15 -31 -22 -40 -18 -26 -3 -32 26 -11 16 11 25
28 26 46 0 33 -17 36 -30 5z"/>
<path d="M1325 510 c3 -5 8 -10 11 -10 2 0 4 5 4 10 0 6 -5 10 -11 10 -5 0 -7
-4 -4 -10z"/>
<path d="M1191 232 c-7 -13 -11 -28 -8 -35 2 -7 9 -2 16 11 7 13 11 28 8 35
-2 7 -9 2 -16 -11z"/>
<path d="M6590 81 c0 -5 7 -12 16 -15 24 -9 28 -7 14 9 -14 17 -30 20 -30 6z"/>
<path d="M6520 45 c0 -20 5 -25 24 -25 19 0 22 4 18 25 -3 16 -11 25 -23 25
-14 0 -19 -7 -19 -25z"/>
<path d="M6605 30 c-3 -5 3 -10 15 -10 12 0 18 5 15 10 -3 6 -10 10 -15 10 -5
0 -12 -4 -15 -10z"/>
</g>
</svg>
